<svg width="24" height="24" viewBox="0 0 24 24" fill="none" xmlns="http://www.w3.org/2000/svg">
<path fill-rule="evenodd" clip-rule="evenodd" d="M15.7307 2C15.9087 3.20886 15.4167 4.39314 14.7676 5.23104C14.0731 6.12978 12.8762 6.8249 11.7164 6.78863C11.5047 5.63126 12.0468 4.43878 12.7063 3.63717C13.4299 2.75247 14.6699 2.07373 15.7307 2ZM19.2146 19.0153C19.8125 18.099 20.0359 17.6368 20.5 16.6023C17.1243 15.3185 16.5834 10.5194 19.9242 8.67739C18.9052 7.39949 17.4733 6.65873 16.1216 6.65873C15.1476 6.65873 14.4803 6.91289 13.8737 7.14395C13.3681 7.3365 12.9047 7.513 12.3411 7.513C11.732 7.513 11.1926 7.31961 10.6278 7.11711C10.0072 6.89459 9.35591 6.66107 8.54775 6.66107C7.03089 6.66107 5.41632 7.5879 4.39267 9.17241C2.95375 11.4041 3.19919 15.5994 5.53264 19.1733C6.36668 20.4524 7.48106 21.8894 8.9386 21.9023C9.54338 21.9083 9.94583 21.7278 10.3813 21.5325C10.8798 21.3089 11.4216 21.0659 12.3597 21.0609C13.3033 21.0552 13.8365 21.3012 14.3284 21.5281C14.7527 21.7238 15.1462 21.9053 15.7459 21.8988C17.2046 21.8871 18.3806 20.2944 19.2146 19.0153Z" fill="#1C1C1C"/>
</svg>
