<svg width="56" height="43" viewBox="0 0 56 43" fill="none" xmlns="http://www.w3.org/2000/svg">
<rect x="0.845306" y="7.52562" width="49.92" height="34.56" rx="17.28" transform="rotate(-7 0.845306 7.52562)" stroke="#6298CA" stroke-width="1.28"/>
<path d="M35.6549 24.6111L31.3742 21.2671L34.7176 16.9873C34.7841 16.9022 34.814 16.7941 34.8008 16.6869C34.7877 16.5797 34.7325 16.4821 34.6474 16.4155L31.6495 14.0727C31.5643 14.0062 31.4562 13.9762 31.3489 13.9894C31.2417 14.0026 31.144 14.0578 31.0775 14.143L27.7335 18.4228L23.4541 15.079C23.2838 14.9458 23.0153 14.9788 22.8821 15.1492L20.5393 18.1474C20.4728 18.2325 20.4428 18.3406 20.456 18.4479C20.4692 18.5552 20.5244 18.6528 20.6096 18.7194L24.8896 22.0633L21.5451 26.3438C21.4787 26.4291 21.4489 26.5371 21.462 26.6443C21.4752 26.7516 21.5303 26.8492 21.6154 26.9158L24.6134 29.2584C24.6986 29.3249 24.8067 29.3549 24.914 29.3417C25.0213 29.3285 25.1189 29.2733 25.1854 29.1881L28.5297 24.9076L32.8104 28.2517C32.8992 28.3209 33.0071 28.3479 33.111 28.3351C33.2148 28.3223 33.3132 28.27 33.3826 28.1814L35.7254 25.1831C35.7918 25.0979 35.8218 24.9898 35.8086 24.8826C35.7954 24.7753 35.7401 24.6777 35.6549 24.6111Z" fill="#AB091E"/>
</svg>
