<svg width="12" height="12" viewBox="0 0 12 12" fill="none" xmlns="http://www.w3.org/2000/svg">
<g clip-path="url(#clip0_1_709)">
<path d="M5.92358 1.9334C5.12608 2.03132 4.37553 2.36353 3.76684 2.88801C3.15814 3.4125 2.71865 4.1057 2.50392 4.87997C2.2892 5.65423 2.3089 6.47478 2.56052 7.23785C2.81214 8.00092 3.28439 8.67224 3.91755 9.16692C4.5507 9.66159 5.31633 9.9574 6.11761 10.017C6.91888 10.0765 7.71982 9.8971 8.41914 9.50144C9.11846 9.10579 9.68475 8.51164 10.0464 7.79415C10.408 7.07665 10.5488 6.26803 10.4509 5.47053C10.3185 4.4016 9.76746 3.42885 8.9187 2.76573C8.06994 2.1026 6.99278 1.80327 5.92358 1.9334ZM8.00419 6.80758C8.03655 6.83286 8.06361 6.86426 8.08383 6.9C8.10405 6.93574 8.11703 6.97511 8.12203 7.01586C8.12704 7.05662 8.12397 7.09796 8.11299 7.13753C8.10202 7.17709 8.08336 7.21411 8.05808 7.24647C8.0328 7.27883 8.0014 7.30589 7.96566 7.3261C7.92992 7.34632 7.89055 7.35931 7.8498 7.36431C7.80904 7.36932 7.7677 7.36624 7.72813 7.35527C7.68857 7.3443 7.65155 7.32564 7.61919 7.30036L6.47251 6.40413L5.57672 7.55114C5.55144 7.5835 5.52003 7.61056 5.48429 7.63078C5.44856 7.651 5.40919 7.66398 5.36843 7.66898C5.32768 7.67399 5.28634 7.67092 5.24677 7.65994C5.2072 7.64897 5.17018 7.63031 5.13782 7.60503C5.10547 7.57975 5.07841 7.54835 5.05819 7.51261C5.03797 7.47687 5.02499 7.4375 5.01998 7.39675C5.01498 7.35599 5.01805 7.31465 5.02902 7.27508C5.04 7.23552 5.05866 7.1985 5.08394 7.16614L5.98017 6.01946L4.83315 5.12367C4.7678 5.07261 4.72542 4.99769 4.71531 4.91538C4.7052 4.83307 4.72821 4.75012 4.77926 4.68477C4.83032 4.61943 4.90524 4.57704 4.98755 4.56693C5.06986 4.55683 5.15281 4.57983 5.21815 4.63089L6.36483 5.52712L7.26063 4.3801C7.28591 4.34774 7.31731 4.32068 7.35305 4.30046C7.38879 4.28025 7.42816 4.26726 7.46891 4.26226C7.50967 4.25725 7.55101 4.26033 7.59058 4.2713C7.63014 4.28227 7.66716 4.30093 7.69952 4.32621C7.73188 4.35149 7.75894 4.3829 7.77916 4.41863C7.79937 4.45437 7.81236 4.49374 7.81736 4.5345C7.82237 4.57525 7.81929 4.61659 7.80832 4.65616C7.79735 4.69573 7.77869 4.73275 7.75341 4.7651L6.85718 5.91178L8.00419 6.80758Z" fill="#5E7078"/>
</g>
<defs>
<clipPath id="clip0_1_709">
<rect width="10" height="10" fill="white" transform="translate(0.84668 1.61226) rotate(-7)"/>
</clipPath>
</defs>
</svg>
