<svg width="25" height="24" viewBox="0 0 25 24" fill="none" xmlns="http://www.w3.org/2000/svg">
<path d="M12.5 5.86667C14.3778 5.86667 15.6445 6.67778 16.3667 7.35556L19.1889 4.6C17.4556 2.98889 15.2 2 12.5 2C8.58891 2 5.21113 4.24445 3.56668 7.51111L6.80002 10.0222C7.61113 7.61111 9.85557 5.86667 12.5 5.86667Z" fill="#EA4335"/>
<path d="M22.1 12.2222C22.1 11.4 22.0333 10.8 21.8889 10.1778H12.5V13.8889H18.0111C17.9 14.8111 17.3 16.2 15.9667 17.1333L19.1222 19.5778C21.0111 17.8333 22.1 15.2667 22.1 12.2222Z" fill="#4285F4"/>
<path d="M6.81111 13.9778C6.6 13.3556 6.47778 12.6889 6.47778 12C6.47778 11.3111 6.6 10.6445 6.8 10.0223L3.56667 7.51114C2.88889 8.8667 2.5 10.3889 2.5 12C2.5 13.6111 2.88889 15.1334 3.56667 16.4889L6.81111 13.9778Z" fill="#FBBC05"/>
<path d="M12.5 22C15.2 22 17.4667 21.1111 19.1222 19.5778L15.9667 17.1333C15.1222 17.7222 13.9889 18.1333 12.5 18.1333C9.85555 18.1333 7.61111 16.3889 6.81111 13.9778L3.57777 16.4889C5.22222 19.7556 8.58889 22 12.5 22Z" fill="#34A853"/>
</svg>
