<svg width="83" height="49" viewBox="0 0 83 49" fill="none" xmlns="http://www.w3.org/2000/svg">
<path d="M12.8678 41.0379L24.1665 38.1611C25.4128 37.8438 26.4819 37.0444 27.1387 35.9389C27.7956 34.8333 27.9863 33.5121 27.669 32.2659L25.7788 24.8416C25.462 23.5955 24.6632 22.5262 23.558 21.8689L13.5038 15.8943C12.9563 15.5691 12.3501 15.3549 11.7199 15.2639C11.0897 15.173 10.4477 15.207 9.83061 15.3642L6.54409 16.201C5.29787 16.5183 4.22874 17.3176 3.57189 18.4232C2.91505 19.5288 2.72429 20.85 3.04159 22.0962L6.97252 37.5354C7.28982 38.7816 8.08918 39.8507 9.19475 40.5076C10.3003 41.1644 11.6215 41.3552 12.8678 41.0379Z" stroke="#5E7078" stroke-width="0.84" stroke-linecap="round" stroke-linejoin="round"/>
<path d="M11.8975 15.352L13.8322 22.9508C14.0135 23.6629 14.4703 24.2738 15.102 24.6492C15.7338 25.0245 16.4888 25.1335 17.2009 24.9522L24.8023 23.0168" stroke="#5E7078" stroke-width="0.84" stroke-linecap="round" stroke-linejoin="round"/>
<path d="M74.0616 34.6526L62.4025 34.5947C61.1166 34.5884 59.8858 34.0714 58.981 33.1576C58.0762 32.2437 57.5715 31.0079 57.5779 29.7219L57.6159 22.061C57.6218 20.7752 58.1382 19.5444 59.0515 18.6393L67.3617 10.4098C67.8143 9.96178 68.3506 9.6073 68.9401 9.36658C69.5296 9.12586 70.1608 9.00361 70.7975 9.00682L74.1889 9.02366C75.4748 9.03004 76.7056 9.54701 77.6104 10.4608C78.5152 11.3747 79.0199 12.6105 79.0135 13.8965L78.9344 29.828C78.928 31.1139 78.4111 32.3447 77.4972 33.2495C76.5834 34.1543 75.3476 34.659 74.0616 34.6526Z" stroke="#5E7078" stroke-width="0.84" stroke-linecap="round" stroke-linejoin="round"/>
<path d="M68.7891 9.49498L68.7501 17.3361C68.7465 18.0709 68.4511 18.7742 67.9289 19.2912C67.4067 19.8082 66.7005 20.0967 65.9657 20.093L58.1218 20.0541" stroke="#5E7078" stroke-width="0.84" stroke-linecap="round" stroke-linejoin="round"/>
<rect x="22.3296" y="7.44188" width="35.28" height="38.64" transform="rotate(-7 22.3296 7.44188)" fill="#FAFCFD"/>
<path d="M56.7274 16.477L58.6869 32.4359C58.7783 33.4843 58.6624 34.5402 58.3459 35.5428C58.0294 36.5454 57.5185 37.4749 56.8427 38.2777C56.1667 39.0839 55.3391 39.748 54.4073 40.2323C53.4754 40.7165 52.4575 41.0114 51.4118 41.0999L37.3494 42.8266C36.308 43.0033 35.2419 42.9716 34.2122 42.7334C33.1825 42.4951 32.2094 42.055 31.3488 41.4382C30.4912 40.8217 29.7639 40.0403 29.209 39.1392C28.6541 38.2382 28.2828 37.2355 28.1165 36.1895L25.7668 17.0529C25.6754 16.0045 25.7913 14.9486 26.1079 13.946C26.4244 12.9434 26.9352 12.0139 27.611 11.2111C28.287 10.405 29.1146 9.74078 30.0465 9.25653C30.9783 8.77229 31.9962 8.47745 33.042 8.38888L43.6286 7.089C45.244 6.88483 46.8778 7.29444 48.2099 8.23757L54.3166 12.6342C54.964 13.0692 55.5133 13.6361 55.9286 14.2982C56.344 14.9602 56.6162 15.7026 56.7274 16.477Z" fill="#BC0A6F"/>
<path d="M56.7274 16.477L58.6869 32.4359C58.7783 33.4843 58.6624 34.5402 58.3459 35.5428C58.0294 36.5454 57.5185 37.4749 56.8427 38.2777C56.1667 39.0839 55.3391 39.748 54.4073 40.2323C53.4754 40.7165 52.4575 41.0114 51.4118 41.0999L37.3494 42.8266C36.308 43.0033 35.2419 42.9716 34.2122 42.7334C33.1825 42.4951 32.2094 42.055 31.3488 41.4382C30.4912 40.8217 29.7639 40.0403 29.209 39.1392C28.6541 38.2382 28.2828 37.2355 28.1165 36.1895L25.7668 17.0529C25.6754 16.0045 25.7913 14.9486 26.1079 13.946C26.4244 12.9434 26.9352 12.0139 27.611 11.2111C28.287 10.405 29.1146 9.74078 30.0465 9.25653C30.9783 8.77229 31.9962 8.47745 33.042 8.38888L43.6286 7.089C45.244 6.88483 46.8778 7.29444 48.2099 8.23757L54.3166 12.6342C54.964 13.0692 55.5133 13.6361 55.9286 14.2982C56.344 14.9602 56.6162 15.7026 56.7274 16.477Z" fill="white" fill-opacity="0.6"/>
<path d="M56.7274 16.477L58.6869 32.4359C58.7783 33.4843 58.6624 34.5402 58.3459 35.5428C58.0294 36.5454 57.5185 37.4749 56.8427 38.2777C56.1667 39.0839 55.3391 39.748 54.4073 40.2323C53.4754 40.7165 52.4575 41.0114 51.4118 41.0999L37.3494 42.8266C36.308 43.0033 35.2419 42.9716 34.2122 42.7334C33.1825 42.4951 32.2094 42.055 31.3488 41.4382C30.4912 40.8217 29.7639 40.0403 29.209 39.1392C28.6541 38.2382 28.2828 37.2355 28.1165 36.1895L25.7668 17.0529C25.6754 16.0045 25.7913 14.9486 26.1079 13.946C26.4244 12.9434 26.9352 12.0139 27.611 11.2111C28.287 10.405 29.1146 9.74078 30.0465 9.25653C30.9783 8.77229 31.9962 8.47745 33.042 8.38888L43.6286 7.089C45.244 6.88483 46.8778 7.29444 48.2099 8.23757L54.3166 12.6342C54.964 13.0692 55.5133 13.6361 55.9286 14.2982C56.344 14.9602 56.6162 15.7026 56.7274 16.477Z" stroke="black" stroke-width="0.84" stroke-linecap="round" stroke-linejoin="round"/>
<path d="M41.8745 21.8755L43.4155 34.426L41.8745 21.8755Z" fill="white"/>
<path d="M41.8745 21.8755L43.4155 34.426" stroke="#BC0A6F" stroke-width="0.84" stroke-miterlimit="10" stroke-linecap="round"/>
<path d="M48.2783 26.4474L42.7345 22.1161C42.6144 22.0211 42.4766 21.9509 42.3291 21.9095C42.1817 21.8682 42.0275 21.8565 41.8755 21.8751C41.7235 21.8938 41.5767 21.9424 41.4437 22.0182C41.3106 22.094 41.1939 22.1955 41.1003 22.3167L36.7692 27.8624" stroke="#BC0A6F" stroke-width="0.84" stroke-linecap="round" stroke-linejoin="round"/>
<path d="M44.28 7.00319L45.0981 13.6657C45.2089 14.568 45.6748 15.3909 46.3943 15.9514C47.1156 16.5124 48.0297 16.7647 48.9366 16.653L56.5792 15.7146" fill="#BC0A6F"/>
<path d="M44.28 7.00319L45.0981 13.6657C45.2089 14.568 45.6748 15.3909 46.3943 15.9514C47.1156 16.5124 48.0297 16.7647 48.9366 16.653L56.5792 15.7146" fill="white" fill-opacity="0.6"/>
<path d="M44.28 7.00319L45.0981 13.6657C45.2089 14.568 45.6748 15.3909 46.3943 15.9514C47.1156 16.5124 48.0297 16.7647 48.9366 16.653L56.5792 15.7146" stroke="black" stroke-width="0.84" stroke-linecap="round" stroke-linejoin="round"/>
</svg>
