<svg width="56" height="43" viewBox="0 0 56 43" fill="none" xmlns="http://www.w3.org/2000/svg">
<rect x="0.909271" y="7.41398" width="49.92" height="34.56" rx="17.28" transform="rotate(-7 0.909271 7.41398)" stroke="#6298CA" stroke-width="1.28"/>
<path d="M36.9903 17.4847L28.0467 28.9319C27.8377 29.1993 27.5311 29.3727 27.1943 29.414C26.8575 29.4554 26.5181 29.3613 26.2506 29.1525L19.8617 24.1337C19.5946 23.9247 19.4214 23.6182 19.3801 23.2816C19.3388 22.945 19.4327 22.6057 19.6413 22.3383L21.0344 20.5553C21.2434 20.2889 21.5494 20.1162 21.8854 20.075C22.2214 20.0337 22.5601 20.1273 22.8273 20.3351L26.4483 23.0759L33.1996 14.5439C33.4086 14.2773 33.7148 14.1044 34.051 14.0631C34.3872 14.0219 34.7261 14.1155 34.9934 14.3237L36.768 15.6807C36.9016 15.7841 37.0134 15.913 37.097 16.0598C37.1806 16.2067 37.2343 16.3687 37.2549 16.5364C37.2756 16.7041 37.2628 16.8742 37.2174 17.037C37.172 17.1997 37.0948 17.3519 36.9903 17.4847Z" fill="#0C6B58"/>
</svg>
